<svg viewBox="0 0 32 32" xmlns="http://www.w3.org/2000/svg" shape-rendering="crispEdges" aria-hidden="true">
  <g fill="#3399FF">
    <rect x="10" y="3" width="12" height="1"/>
    <rect x="8" y="4" width="2" height="1"/>
    <rect x="22" y="4" width="2" height="1"/>
    <rect x="7" y="5" width="1" height="2"/>
    <rect x="24" y="5" width="1" height="2"/>
    <rect x="6" y="7" width="1" height="2"/>
    <rect x="25" y="7" width="1" height="2"/>
    <rect x="5" y="9" width="1" height="2"/>
    <rect x="26" y="9" width="1" height="2"/>
    <rect x="4" y="11" width="1" height="10"/>
    <rect x="27" y="11" width="1" height="10"/>
    <rect x="5" y="21" width="1" height="2"/>
    <rect x="26" y="21" width="1" height="2"/>
    <rect x="6" y="23" width="1" height="2"/>
    <rect x="25" y="23" width="1" height="2"/>
    <rect x="7" y="25" width="1" height="2"/>
    <rect x="24" y="25" width="1" height="2"/>
    <rect x="8" y="27" width="2" height="1"/>
    <rect x="22" y="27" width="2" height="1"/>
    <rect x="10" y="28" width="12" height="1"/>
    <rect x="15" y="5" width="2" height="3"/>
    <rect x="15" y="24" width="2" height="3"/>
    <rect x="12" y="10" width="2" height="13"/>
    <rect x="14" y="10" width="4" height="2"/>
    <rect x="14" y="14" width="4" height="2"/>
    <rect x="14" y="18" width="4" height="2"/>
    <rect x="14" y="21" width="4" height="2"/>
    <rect x="17" y="11" width="2" height="3"/>
    <rect x="17" y="15" width="2" height="3"/>
    <rect x="17" y="19" width="2" height="4"/>
  </g>
</svg>
